<?xml version="1.0" encoding="UTF-8" standalone="no"?>
<!-- Created with Inkscape (http://www.inkscape.org/) -->

<svg
   width="100.93588mm"
   height="115.36198mm"
   viewBox="0 0 100.93588 115.36198"
   version="1.1"
   id="svg1"
   xml:space="preserve"
   xmlns="http://www.w3.org/2000/svg"
   xmlns:svg="http://www.w3.org/2000/svg"><defs
     id="defs1" /><g
     id="layer1"
     transform="translate(-29.961899,-139.26734)"><path
       id="path10"
       style="font-variation-settings:'wght' 600;fill:#0d3d42;fill-opacity:1;stroke-width:2;stroke-linecap:round;stroke-linejoin:round;stroke-miterlimit:5.4;stroke-opacity:0.705882"
       d="m 78.474654,140.94788 c -2.034843,-0.0371 -4.127327,0.41681 -6.030123,1.649 -2.88696,1.65741 -24.49544,15.26655 -33.518367,22.26479 -2.815365,2.18474 -4.169718,4.43977 -4.603853,7.76593 -0.12204,8.68393 -0.260015,34.2906 -0.0031,42.27856 0.01417,1.05235 -0.05328,3.45006 4.895825,7.65121 2.014048,1.42155 18.629749,13.77796 35.106384,22.92987 2.266032,1.17945 6.803855,0.94462 9.044926,0.37724 10.556288,-7.01334 30.746884,-20.05883 34.625794,-22.80947 0.89827,-0.82598 5.10391,-3.23597 5.70043,-8.05015 0.10818,-4.42808 0.0427,-33.64922 -0.045,-42.42015 -0.0387,-1.26746 -1.18849,-5.43578 -3.78013,-7.18561 -6.46599,-4.44716 -31.590172,-20.62844 -32.84761,-21.50566 -1.922926,-1.45878 -5.153809,-2.88378 -8.545215,-2.94556 z m -0.116788,8.70955 c 0.86127,-0.041 1.791068,0.0665 2.717663,0.31936 6.118598,2.93319 25.562281,16.64223 30.622421,19.73419 1.1762,0.49111 4.22781,2.09096 4.08812,5.14801 -0.0703,5.34581 -0.0366,31.50808 -0.0486,38.52271 -0.28173,1.44834 -1.27716,2.24199 -1.77199,2.59829 -5.88921,4.87257 -27.751631,18.77591 -33.555573,21.96817 -1.354017,0.26163 -3.20082,0.11941 -4.270541,-0.48937 -0.40068,-0.41159 -0.925841,-1.10005 -0.993737,-1.59164 -0.131644,-1.73665 -0.0077,-2.91879 0.04754,-4.50205 0.297899,-1.14979 1.380803,-2.71718 2.542997,-2.97501 5.277592,-2.1499 19.004686,-7.51424 26.549284,-15.53859 7.34843,-11.01593 5.70462,-25.98306 -2.34766,-37.3941 -7.414731,-9.4984 -22.308899,-16.16238 -30.274121,-14.4048 -1.465128,0.71061 -2.959881,1.38285 -4.816244,2.64997 -2.87343,1.96135 -5.987613,4.48281 -7.784538,16.50596 -1.980006,-0.0125 -6.594112,1.83815 -8.198466,7.75664 -0.476381,4.34912 -1.321525,8.84824 -0.578776,16.15405 1.429341,5.0989 4.168713,7.64967 11.691276,10.66757 0.58618,0.28673 5.592091,1.82404 5.723682,7.93026 0.02756,1.71942 0.03027,6.50062 -0.12144,8.58449 -4.919949,-2.64969 -19.060398,-11.88901 -23.060091,-14.94637 -0.843985,-0.73393 -1.9691,-2.20449 -1.83813,-4.3186 -0.146455,-5.13111 0.0494,-30.40762 -0.01809,-37.20962 0.108881,-1.08012 0.342383,-3.01028 1.564762,-3.85351 5.325415,-4.03362 25.249653,-17.2497 31.824414,-20.74292 0.651843,-0.34215 1.444532,-0.53205 2.305803,-0.57309 z m -2.146639,19.13165 c 1.969843,0.0845 3.907322,0.64544 5.15369,0.87333 2.744647,0.80409 8.513568,3.70702 12.99714,8.49302 3.994892,4.26436 6.888633,10.10442 6.971153,16.02693 -0.14713,12.12584 -3.087652,14.11781 -4.79971,15.79335 -5.561365,5.07757 -17.039535,11.61273 -21.454504,11.61273 -3.425286,-10.98547 -8.832843,-13.02543 -12.658142,-14.74277 -3.43296,-0.88361 -4.889298,-2.6431 -4.924247,-5.30562 0.06314,-1.58358 -0.164781,-7.65378 0.289904,-11.15436 0.639278,-2.19942 1.734742,-2.96735 3.59358,-3.01687 0.902513,-0.025 1.543794,0.0482 2.571936,-0.032 2.989831,-1.37992 2.705277,-2.65798 2.798795,-3.6003 -0.0046,-1.40823 -0.0936,-3.55029 0.02274,-6.07198 0.288449,-1.28779 1.321587,-7.23396 5.483903,-8.35246 0.991201,-0.26606 2.509475,-0.58492 3.953764,-0.52296 z m 6.352067,26.36893 a 9.3049866,9.3049866 0 0 0 -9.304859,9.30486 9.3049866,9.3049866 0 0 0 9.304859,9.30537 9.3049866,9.3049866 0 0 0 9.304858,-9.30537 9.3049866,9.3049866 0 0 0 -9.304858,-9.30486 z"
       transform="translate(0.41613748,3.3290998)" /></g></svg>
